<svg width="394" height="88" viewBox="0 0 394 88" fill="none" xmlns="http://www.w3.org/2000/svg">
<g filter="url(#filter0_d_411_1051)">
<path d="M30 79.7C25.1333 79.7 20.7333 78.8667 16.8 77.2C12.9333 75.5333 9.86667 73.1333 7.6 70C5.33333 66.8667 4.16667 63.1667 4.1 58.9H19.1C19.3 61.7667 20.3 64.0333 22.1 65.7C23.9667 67.3667 26.5 68.2 29.7 68.2C32.9667 68.2 35.5333 67.4333 37.4 65.9C39.2667 64.3 40.2 62.2333 40.2 59.7C40.2 57.6333 39.5667 55.9333 38.3 54.6C37.0333 53.2667 35.4333 52.2333 33.5 51.5C31.6333 50.7 29.0333 49.8333 25.7 48.9C21.1667 47.5667 17.4667 46.2667 14.6 45C11.8 43.6667 9.36667 41.7 7.3 39.1C5.3 36.4333 4.3 32.9 4.3 28.5C4.3 24.3667 5.33333 20.7667 7.4 17.7C9.46667 14.6333 12.3667 12.3 16.1 10.7C19.8333 9.03333 24.1 8.2 28.9 8.2C36.1 8.2 41.9333 9.96667 46.4 13.5C50.9333 16.9667 53.4333 21.8333 53.9 28.1H38.5C38.3667 25.7 37.3333 23.7333 35.4 22.2C33.5333 20.6 31.0333 19.8 27.9 19.8C25.1667 19.8 22.9667 20.5 21.3 21.9C19.7 23.3 18.9 25.3333 18.9 28C18.9 29.8667 19.5 31.4333 20.7 32.7C21.9667 33.9 23.5 34.9 25.3 35.7C27.1667 36.4333 29.7667 37.3 33.1 38.3C37.6333 39.6333 41.3333 40.9667 44.2 42.3C47.0667 43.6333 49.5333 45.6333 51.6 48.3C53.6667 50.9667 54.7 54.4667 54.7 58.8C54.7 62.5333 53.7333 66 51.8 69.2C49.8667 72.4 47.0333 74.9667 43.3 76.9C39.5667 78.7667 35.1333 79.7 30 79.7ZM118.338 50.1C118.338 52.1 118.204 53.9 117.938 55.5H77.4375C77.7708 59.5 79.1708 62.6333 81.6375 64.9C84.1042 67.1667 87.1375 68.3 90.7375 68.3C95.9375 68.3 99.6375 66.0667 101.838 61.6H116.938C115.338 66.9333 112.271 71.3333 107.738 74.8C103.204 78.2 97.6375 79.9 91.0375 79.9C85.7042 79.9 80.9042 78.7333 76.6375 76.4C72.4375 74 69.1375 70.6333 66.7375 66.3C64.4042 61.9667 63.2375 56.9667 63.2375 51.3C63.2375 45.5667 64.4042 40.5333 66.7375 36.2C69.0708 31.8667 72.3375 28.5333 76.5375 26.2C80.7375 23.8667 85.5708 22.7 91.0375 22.7C96.3042 22.7 101.004 23.8333 105.138 26.1C109.338 28.3667 112.571 31.6 114.838 35.8C117.171 39.9333 118.338 44.7 118.338 50.1ZM103.838 46.1C103.771 42.5 102.471 39.6333 99.9375 37.5C97.4042 35.3 94.3042 34.2 90.6375 34.2C87.1708 34.2 84.2375 35.2667 81.8375 37.4C79.5042 39.4667 78.0708 42.3667 77.5375 46.1H103.838ZM142.556 32.2C144.356 29.2667 146.69 26.9667 149.556 25.3C152.49 23.6333 155.823 22.8 159.556 22.8V37.5H155.856C151.456 37.5 148.123 38.5333 145.856 40.6C143.656 42.6667 142.556 46.2667 142.556 51.4V79H128.556V23.6H142.556V32.2ZM192.086 66.1L206.086 23.6H220.986L200.486 79H183.486L163.086 23.6H178.086L192.086 66.1ZM235.949 17C233.483 17 231.416 16.2333 229.749 14.7C228.149 13.1 227.349 11.1333 227.349 8.8C227.349 6.46666 228.149 4.53333 229.749 2.99999C231.416 1.4 233.483 0.599996 235.949 0.599996C238.416 0.599996 240.449 1.4 242.049 2.99999C243.716 4.53333 244.549 6.46666 244.549 8.8C244.549 11.1333 243.716 13.1 242.049 14.7C240.449 16.2333 238.416 17 235.949 17ZM242.849 23.6V79H228.849V23.6H242.849Z" fill="#055286"/>
<path d="M316.181 8.8L291.881 55.8V79H274.781V55.8L250.481 8.8H269.881L283.481 38.2L296.981 8.8H316.181ZM366.771 66.6H340.571L336.371 79H318.471L343.871 8.8H363.671L389.071 79H370.971L366.771 66.6ZM362.371 53.4L353.671 27.7L345.071 53.4H362.371Z" fill="#FEDD02"/>
</g>
<defs>
<filter id="filter0_d_411_1051" x="0.0999756" y="0.600006" width="392.971" height="87.3" filterUnits="userSpaceOnUse" color-interpolation-filters="sRGB">
<feFlood flood-opacity="0" result="BackgroundImageFix"/>
<feColorMatrix in="SourceAlpha" type="matrix" values="0 0 0 0 0 0 0 0 0 0 0 0 0 0 0 0 0 0 127 0" result="hardAlpha"/>
<feOffset dy="4"/>
<feGaussianBlur stdDeviation="2"/>
<feComposite in2="hardAlpha" operator="out"/>
<feColorMatrix type="matrix" values="0 0 0 0 0 0 0 0 0 0 0 0 0 0 0 0 0 0 0.25 0"/>
<feBlend mode="normal" in2="BackgroundImageFix" result="effect1_dropShadow_411_1051"/>
<feBlend mode="normal" in="SourceGraphic" in2="effect1_dropShadow_411_1051" result="shape"/>
</filter>
</defs>
</svg>
