<svg width="24" height="18" viewBox="0 0 24 18" fill="none" xmlns="http://www.w3.org/2000/svg">
<path d="M23.8428 3.97426C23.8428 1.86489 22.2912 0.168014 20.374 0.168014C17.7771 0.0466078 15.1287 -0.000267029 12.4221 -0.000267029H11.5784C8.87839 -0.000267029 6.22527 0.0466079 3.62839 0.168483C1.71589 0.168483 0.164329 1.87473 0.164329 3.98411C0.0471418 5.65239 -0.00254575 7.32114 0.000266746 8.98989C-0.00442075 10.6586 0.0487043 12.329 0.159642 14.0008C0.159642 16.1102 1.7112 17.8211 3.6237 17.8211C6.35183 17.9477 9.15027 18.0039 11.9956 17.9993C14.8456 18.0086 17.6362 17.9493 20.3675 17.8211C22.2846 17.8211 23.8362 16.1102 23.8362 14.0008C23.9487 12.3274 24.0003 10.6586 23.9956 8.9852C24.0062 7.31645 23.9553 5.64614 23.8428 3.97426ZM9.70339 13.5883V4.37739L16.5003 8.98051L9.70339 13.5883Z" fill="#055286"/>
</svg>
