<svg width="41" height="38" viewBox="0 0 41 38" fill="none" xmlns="http://www.w3.org/2000/svg">
<path d="M20.0721 0C25.2721 0 29.4721 4 29.6721 9.2C29.6721 14.4 25.6721 18.6 20.4721 18.8C15.2721 18.8 11.0721 14.8 10.8721 9.6V9.4C10.8721 4.4 14.8721 0 20.0721 0ZM39.2721 36C38.4721 37 37.2721 37.6 35.8721 37.6H4.27214C3.07214 37.6 1.67214 37 0.872136 36C0.072136 35 -0.127864 33.6 0.072136 32.4C1.27214 26.2 5.67214 20.6 11.6721 18C16.4721 22 23.6721 22 28.4721 18C33.0721 20 36.6721 23.8 38.6721 28.8C39.0721 30 39.4721 31.4 39.8721 32.6C40.2721 33.8 39.8721 35 39.2721 36Z" fill="white"/>
</svg>
