<svg width="163" height="41" viewBox="0 0 163 41" fill="none" xmlns="http://www.w3.org/2000/svg">
<g filter="url(#filter0_d_289_1926)">
<path d="M14.4 32.28C12.4533 32.28 10.6933 31.9467 9.12 31.28C7.57333 30.6133 6.34667 29.6533 5.44 28.4C4.53333 27.1467 4.06667 25.6667 4.04 23.96H10.04C10.12 25.1067 10.52 26.0133 11.24 26.68C11.9867 27.3467 13 27.68 14.28 27.68C15.5867 27.68 16.6133 27.3733 17.36 26.76C18.1067 26.12 18.48 25.2933 18.48 24.28C18.48 23.4533 18.2267 22.7733 17.72 22.24C17.2133 21.7067 16.5733 21.2933 15.8 21C15.0533 20.68 14.0133 20.3333 12.68 19.96C10.8667 19.4267 9.38667 18.9067 8.24 18.4C7.12 17.8667 6.14667 17.08 5.32 16.04C4.52 14.9733 4.12 13.56 4.12 11.8C4.12 10.1467 4.53333 8.70667 5.36 7.48C6.18667 6.25333 7.34667 5.32 8.84 4.68C10.3333 4.01333 12.04 3.68 13.96 3.68C16.84 3.68 19.1733 4.38667 20.96 5.8C22.7733 7.18667 23.7733 9.13333 23.96 11.64H17.8C17.7467 10.68 17.3333 9.89333 16.56 9.28C15.8133 8.64 14.8133 8.32 13.56 8.32C12.4667 8.32 11.5867 8.6 10.92 9.16C10.28 9.72 9.96 10.5333 9.96 11.6C9.96 12.3467 10.2 12.9733 10.68 13.48C11.1867 13.96 11.8 14.36 12.52 14.68C13.2667 14.9733 14.3067 15.32 15.64 15.72C17.4533 16.2533 18.9333 16.7867 20.08 17.32C21.2267 17.8533 22.2133 18.6533 23.04 19.72C23.8667 20.7867 24.28 22.1867 24.28 23.92C24.28 25.4133 23.8933 26.8 23.12 28.08C22.3467 29.36 21.2133 30.3867 19.72 31.16C18.2267 31.9067 16.4533 32.28 14.4 32.28ZM49.735 20.44C49.735 21.24 49.6817 21.96 49.575 22.6H33.375C33.5083 24.2 34.0683 25.4533 35.055 26.36C36.0417 27.2667 37.255 27.72 38.695 27.72C40.775 27.72 42.255 26.8267 43.135 25.04H49.175C48.535 27.1733 47.3083 28.9333 45.495 30.32C43.6817 31.68 41.455 32.36 38.815 32.36C36.6817 32.36 34.7617 31.8933 33.055 30.96C31.375 30 30.055 28.6533 29.095 26.92C28.1617 25.1867 27.695 23.1867 27.695 20.92C27.695 18.6267 28.1617 16.6133 29.095 14.88C30.0283 13.1467 31.335 11.8133 33.015 10.88C34.695 9.94667 36.6283 9.48 38.815 9.48C40.9217 9.48 42.8017 9.93333 44.455 10.84C46.135 11.7467 47.4283 13.04 48.335 14.72C49.2683 16.3733 49.735 18.28 49.735 20.44ZM43.935 18.84C43.9083 17.4 43.3883 16.2533 42.375 15.4C41.3617 14.52 40.1217 14.08 38.655 14.08C37.2683 14.08 36.095 14.5067 35.135 15.36C34.2017 16.1867 33.6283 17.3467 33.415 18.84H43.935ZM59.4225 13.28C60.1425 12.1067 61.0758 11.1867 62.2225 10.52C63.3958 9.85333 64.7292 9.52 66.2225 9.52V15.4H64.7425C62.9825 15.4 61.6492 15.8133 60.7425 16.64C59.8625 17.4667 59.4225 18.9067 59.4225 20.96V32H53.8225V9.84H59.4225V13.28ZM79.2344 26.84L84.8344 9.84H90.7944L82.5944 32H75.7944L67.6344 9.84H73.6344L79.2344 26.84ZM96.7797 7.2C95.793 7.2 94.9664 6.89333 94.2997 6.28C93.6597 5.64 93.3397 4.85333 93.3397 3.92C93.3397 2.98667 93.6597 2.21333 94.2997 1.6C94.9664 0.959998 95.793 0.639998 96.7797 0.639998C97.7664 0.639998 98.5797 0.959998 99.2197 1.6C99.8864 2.21333 100.22 2.98667 100.22 3.92C100.22 4.85333 99.8864 5.64 99.2197 6.28C98.5797 6.89333 97.7664 7.2 96.7797 7.2ZM99.5397 9.84V32H93.9397V9.84H99.5397Z" fill="#FAFAFA"/>
<path d="M128.873 3.92L119.153 22.72V32H112.312V22.72L102.593 3.92H110.353L115.793 15.68L121.193 3.92H128.873ZM149.108 27.04H138.628L136.948 32H129.788L139.948 3.92H147.868L158.028 32H150.788L149.108 27.04ZM147.348 21.76L143.868 11.48L140.428 21.76H147.348Z" fill="#E8C900"/>
</g>
<defs>
<filter id="filter0_d_289_1926" x="0.0400391" y="0.639893" width="161.989" height="39.7202" filterUnits="userSpaceOnUse" color-interpolation-filters="sRGB">
<feFlood flood-opacity="0" result="BackgroundImageFix"/>
<feColorMatrix in="SourceAlpha" type="matrix" values="0 0 0 0 0 0 0 0 0 0 0 0 0 0 0 0 0 0 127 0" result="hardAlpha"/>
<feOffset dy="4"/>
<feGaussianBlur stdDeviation="2"/>
<feComposite in2="hardAlpha" operator="out"/>
<feColorMatrix type="matrix" values="0 0 0 0 0 0 0 0 0 0 0 0 0 0 0 0 0 0 0.25 0"/>
<feBlend mode="normal" in2="BackgroundImageFix" result="effect1_dropShadow_289_1926"/>
<feBlend mode="normal" in="SourceGraphic" in2="effect1_dropShadow_289_1926" result="shape"/>
</filter>
</defs>
</svg>
