<svg width="10" height="9" viewBox="0 0 10 9" fill="none" xmlns="http://www.w3.org/2000/svg">
<path fill-rule="evenodd" clip-rule="evenodd" d="M9.92188 4.65886C9.92188 4.82331 9.85655 4.98102 9.74027 5.09731C9.62398 5.21359 9.46627 5.27891 9.30182 5.27891L2.11792 5.27891L4.78042 7.94017C4.89685 8.0566 4.96226 8.21451 4.96226 8.37917C4.96226 8.54382 4.89685 8.70173 4.78042 8.81816C4.66399 8.93459 4.50608 9 4.34142 9C4.17677 9 4.01886 8.93459 3.90243 8.81816L0.182125 5.09786C0.124382 5.04026 0.0785704 4.97184 0.0473118 4.89651C0.0160532 4.82118 -3.71933e-05 4.74042 -3.71933e-05 4.65886C-3.71933e-05 4.57731 0.0160532 4.49655 0.0473118 4.42122C0.0785704 4.34589 0.124382 4.27747 0.182125 4.21987L3.90243 0.499568C4.01886 0.383139 4.17677 0.31773 4.34142 0.31773C4.50608 0.31773 4.66399 0.383139 4.78042 0.499568C4.89685 0.615996 4.96226 0.773908 4.96226 0.938563C4.96226 1.10322 4.89685 1.26113 4.78042 1.37756L2.11792 4.03881L9.30182 4.03881C9.46627 4.03881 9.62398 4.10414 9.74027 4.22042C9.85655 4.3367 9.92188 4.49442 9.92188 4.65886Z" fill="#4E4E4E"/>
</svg>
