<svg width="20" height="20" viewBox="0 0 20 20" fill="none" xmlns="http://www.w3.org/2000/svg">
<path d="M10 0C4.48189 0 0 4.48189 0 10C0 15.5181 4.48189 20 10 20C15.5181 20 20 15.5181 20 10C20 4.48189 15.5181 0 10 0ZM10 0.8C15.0858 0.8 19.2 4.91424 19.2 10C19.2 15.0858 15.0858 19.2 10 19.2C4.91424 19.2 0.8 15.0858 0.8 10C0.8 4.91424 4.91424 0.8 10 0.8ZM10 2C5.58646 2 2 5.58646 2 10C2 11.7914 2.5903 13.4497 3.58672 14.7836C3.61817 14.8257 3.6576 14.8612 3.70277 14.8881C3.74793 14.915 3.79795 14.9327 3.84997 14.9402C3.90198 14.9478 3.95498 14.945 4.00592 14.9321C4.05686 14.9191 4.10476 14.8963 4.14687 14.8648C4.18899 14.8334 4.2245 14.794 4.25137 14.7488C4.27825 14.7036 4.29597 14.6536 4.30351 14.6016C4.31106 14.5496 4.30828 14.4966 4.29535 14.4456C4.28241 14.3947 4.25957 14.3468 4.22812 14.3047C3.33099 13.1037 2.8 11.6159 2.8 10C2.8 6.01881 6.01881 2.8 10 2.8C13.9812 2.8 17.2 6.01881 17.2 10C17.2 13.9812 13.9812 17.2 10 17.2C8.83873 17.2 7.74448 16.9262 6.77422 16.4391C6.72728 16.4155 6.67615 16.4013 6.62375 16.3975C6.57134 16.3936 6.5187 16.4001 6.46881 16.4166C6.41893 16.4331 6.37278 16.4593 6.33301 16.4936C6.29324 16.528 6.26062 16.5698 6.23702 16.6168C6.21342 16.6637 6.19929 16.7148 6.19546 16.7672C6.19162 16.8196 6.19815 16.8723 6.21466 16.9222C6.23117 16.972 6.25735 17.0182 6.2917 17.058C6.32605 17.0977 6.36789 17.1303 6.41484 17.1539C7.49332 17.6954 8.71262 18 10 18C14.4135 18 18 14.4135 18 10C18 5.58646 14.4135 2 10 2ZM9.99376 5.20391C9.88781 5.20556 9.78684 5.24918 9.71302 5.3252C9.6392 5.40122 9.59855 5.50342 9.6 5.60938V6.34062C9.5484 6.34978 9.49673 6.35366 9.44531 6.36642C9.44505 6.36642 9.44478 6.36642 9.44451 6.36642C8.50534 6.59959 7.8242 7.40575 7.8242 8.34377C7.8242 9.27854 8.50158 10.081 9.43592 10.3172C9.99197 10.4857 10.3244 10.4158 10.7117 10.5735C11.2454 10.8669 11.4862 11.4182 11.3328 11.9485C11.1779 12.4838 10.6398 12.8789 10.0015 12.8789C9.36332 12.8789 8.82445 12.4838 8.66951 11.9485C8.6549 11.898 8.63049 11.8508 8.59767 11.8098C8.56485 11.7687 8.52426 11.7345 8.47823 11.7092C8.43219 11.6838 8.38161 11.6678 8.32937 11.662C8.27713 11.6561 8.22426 11.6607 8.17378 11.6753C8.12329 11.6899 8.07618 11.7143 8.03513 11.7472C7.99409 11.78 7.95991 11.8206 7.93456 11.8666C7.90921 11.9127 7.89317 11.9633 7.88737 12.0155C7.88157 12.0678 7.88612 12.1206 7.90076 12.1711C8.12526 12.9467 8.79968 13.4994 9.59998 13.6406V14.3906C9.59923 14.4436 9.60902 14.4963 9.62879 14.5455C9.64855 14.5946 9.6779 14.6394 9.71512 14.6772C9.75233 14.7149 9.79668 14.7449 9.84559 14.7653C9.89449 14.7858 9.94697 14.7963 9.99998 14.7963C10.053 14.7963 10.1055 14.7858 10.1544 14.7653C10.2033 14.7449 10.2476 14.7149 10.2848 14.6772C10.3221 14.6394 10.3514 14.5946 10.3712 14.5455C10.3909 14.4963 10.4007 14.4436 10.4 14.3906V13.6414C11.2015 13.5011 11.8768 12.9478 12.1015 12.1711C12.3628 11.2682 11.9262 10.3096 11.0781 9.85626C11.0676 9.85085 11.057 9.8459 11.0461 9.84142C10.4456 9.58614 10.0423 9.66936 9.65935 9.5508C9.65212 9.54851 9.64482 9.54643 9.63747 9.54456C9.02322 9.39206 8.62419 8.89475 8.62419 8.34378C8.62419 7.79261 9.0232 7.29549 9.63747 7.14299C10.2517 6.99067 10.8962 7.24549 11.2 7.73284C11.2278 7.77743 11.2641 7.81611 11.3068 7.84667C11.3496 7.87722 11.3979 7.89906 11.4491 7.91093C11.5003 7.9228 11.5533 7.92447 11.6052 7.91585C11.657 7.90722 11.7066 7.88847 11.7512 7.86066C11.7958 7.83285 11.8345 7.79653 11.865 7.75378C11.8955 7.71102 11.9174 7.66267 11.9292 7.61148C11.9411 7.56029 11.9427 7.50726 11.9341 7.45543C11.9255 7.4036 11.9067 7.35398 11.8789 7.3094C11.5487 6.77977 11.0027 6.43704 10.4 6.33206V5.6094C10.4007 5.55588 10.3907 5.50277 10.3705 5.45319C10.3504 5.40361 10.3204 5.35859 10.2826 5.32078C10.2447 5.28297 10.1996 5.25315 10.15 5.23308C10.1004 5.21301 10.0473 5.20307 9.99376 5.20391ZM15.9516 11.3586C15.9089 11.3612 15.8683 11.3774 15.8355 11.4048C15.8028 11.4323 15.7796 11.4694 15.7695 11.5109C15.4775 12.6261 14.8673 13.6357 14.0117 14.4133C13.9914 14.4307 13.9748 14.452 13.9628 14.4759C13.9509 14.4999 13.9439 14.526 13.9422 14.5527C13.9405 14.5794 13.9442 14.6061 13.9531 14.6314C13.9619 14.6566 13.9757 14.6798 13.9937 14.6996C14.0117 14.7195 14.0335 14.7355 14.0577 14.7467C14.082 14.7579 14.1083 14.7642 14.135 14.7651C14.1618 14.766 14.1884 14.7616 14.2134 14.752C14.2384 14.7424 14.2612 14.7279 14.2805 14.7094C15.1936 13.8795 15.8453 12.8026 16.157 11.6125C16.1652 11.5834 16.1667 11.5528 16.1613 11.523C16.1559 11.4932 16.1439 11.4651 16.1261 11.4406C16.1082 11.4162 16.0851 11.3961 16.0584 11.3819C16.0317 11.3677 16.0021 11.3597 15.9719 11.3586C15.9651 11.3582 15.9583 11.3582 15.9516 11.3586ZM13.343 14.9766C13.3048 14.9773 13.2677 14.989 13.2359 15.0102C13.153 15.0637 13.0681 15.1152 12.982 15.1649C12.936 15.1914 12.9025 15.2351 12.8887 15.2864C12.8749 15.3376 12.8821 15.3923 12.9086 15.4383C12.9351 15.4843 12.9788 15.5179 13.0301 15.5316C13.0814 15.5454 13.136 15.5382 13.182 15.5117C13.2738 15.4587 13.3639 15.4032 13.4524 15.3461C13.4894 15.3229 13.5178 15.2882 13.5333 15.2474C13.5487 15.2065 13.5504 15.1617 13.538 15.1198C13.5256 15.0779 13.4998 15.0412 13.4646 15.0153C13.4294 14.9895 13.3867 14.9759 13.343 14.9766ZM5.00938 15.3203C4.92645 15.3176 4.84473 15.3408 4.77556 15.3867C4.70639 15.4325 4.65318 15.4987 4.62331 15.5762C4.59344 15.6536 4.58839 15.7384 4.60885 15.8188C4.62931 15.8992 4.67427 15.9713 4.73751 16.025C4.84028 16.1148 4.94504 16.2022 5.05235 16.2867C5.09347 16.3205 5.1409 16.3457 5.19188 16.3609C5.24286 16.3761 5.29636 16.381 5.34925 16.3753C5.40214 16.3695 5.45336 16.3533 5.4999 16.3276C5.54645 16.3018 5.58739 16.267 5.62033 16.2252C5.65327 16.1835 5.67755 16.1356 5.69174 16.0843C5.70594 16.033 5.70976 15.9794 5.703 15.9267C5.69623 15.8739 5.67901 15.823 5.65234 15.777C5.62566 15.7309 5.59008 15.6907 5.54766 15.6586C5.45104 15.5824 5.35662 15.5036 5.26407 15.4227C5.1939 15.3596 5.10369 15.3233 5.00938 15.3203Z" fill="#4E4E4E"/>
</svg>
