<svg width="293" height="289" viewBox="0 0 293 289" fill="none" xmlns="http://www.w3.org/2000/svg">
<g clip-path="url(#clip0_1101_5524)">
<path d="M50.9009 33.0397L48.8217 36.6027C48.6424 36.9216 48.5944 37.2977 48.6878 37.6514C48.7813 38.0051 49.0089 38.3084 49.3223 38.497L72.7516 52.1729L79.1173 41.2738L74.7534 38.7279C73.9996 38.2764 73.1891 37.927 72.3433 37.6889L52.4704 32.3939C52.1741 32.3159 51.8605 32.3368 51.5772 32.4533C51.2939 32.5699 51.0564 32.7758 50.9009 33.0397Z" stroke="#055286" stroke-width="1.8165" stroke-linecap="round" stroke-linejoin="round"/>
<path d="M79.1034 41.2752L72.7518 52.173L80.4418 56.6867C80.7629 56.8724 81.1442 56.9238 81.5029 56.8296C81.8617 56.7355 82.1687 56.5035 82.3571 56.1841L88.3575 45.8923C88.4516 45.7327 88.5132 45.556 88.5388 45.3725C88.5644 45.189 88.5534 45.0022 88.5066 44.8229C88.4598 44.6437 88.378 44.4754 88.2659 44.3278C88.1538 44.1803 88.0137 44.0563 87.8535 43.9631L83.0861 41.1877C82.6753 40.9489 82.1959 40.8557 81.7255 40.9234L79.1034 41.2752Z" stroke="#055286" stroke-width="1.8165" stroke-linecap="round" stroke-linejoin="round"/>
<path d="M84.745 45.7889L80.5155 53.0559L77.0649 51.0436L80.6245 44.8866L82.6567 44.5705L84.745 45.7889Z" stroke="#055286" stroke-width="1.8165" stroke-linecap="round" stroke-linejoin="round"/>
</g>
<g clip-path="url(#clip1_1101_5524)">
<path d="M243.512 228.13L219.652 214.614C218.301 213.849 216.584 214.324 215.819 215.675L212.891 220.845C212.125 222.197 212.6 223.913 213.952 224.678L237.812 238.194C239.163 238.959 240.879 238.484 241.645 237.133L244.573 231.963C245.339 230.612 244.864 228.895 243.512 228.13Z" stroke="#055286" stroke-width="1.8165" stroke-linecap="round" stroke-linejoin="round"/>
<path d="M219.038 243.519L222.611 237.211C222.887 236.725 223.345 236.367 223.884 236.218C224.423 236.069 224.999 236.14 225.486 236.416L238.04 243.527C238.851 243.986 239.812 244.105 240.711 243.856C241.609 243.607 242.372 243.012 242.832 242.201L245.143 238.12C245.419 237.633 245.49 237.057 245.341 236.518C245.192 235.978 244.834 235.521 244.347 235.245L243.124 234.552M218.133 243.006L219.968 244.046C220.293 244.23 220.531 244.535 220.63 244.894C220.73 245.254 220.682 245.638 220.499 245.962L215.751 254.344C215.429 254.912 214.895 255.329 214.266 255.503C213.637 255.677 212.965 255.594 212.397 255.272C211.829 254.951 211.412 254.417 211.238 253.788C211.064 253.159 211.147 252.486 211.468 251.918L216.216 243.537C216.4 243.212 216.705 242.974 217.064 242.874C217.424 242.775 217.808 242.822 218.133 243.006Z" stroke="#055286" stroke-width="1.8165" stroke-linecap="round" stroke-linejoin="round"/>
</g>
<g clip-path="url(#clip2_1101_5524)">
<path d="M49.1217 218.286L62.6422 214.029C63.3537 213.805 64.1251 213.872 64.7866 214.217C65.4481 214.562 65.9456 215.155 66.1696 215.867L69.4219 226.195C69.646 226.906 69.5782 227.678 69.2335 228.339C68.8889 229.001 68.2955 229.498 67.584 229.722L53.8087 234.06C52.7947 234.379 51.7278 234.495 50.6688 234.402C49.6099 234.308 48.5798 234.007 47.6375 233.515C46.6952 233.023 45.8591 232.35 45.1772 231.535C44.4952 230.719 43.9808 229.777 43.6632 228.763C43.3328 227.716 43.2119 226.615 43.3075 225.522C43.403 224.429 43.7132 223.366 44.2202 222.393C44.7272 221.42 45.421 220.556 46.2621 219.851C47.1032 219.147 48.0749 218.615 49.1217 218.286ZM66.2921 216.256L70.4368 214.95C70.7925 214.838 71.1782 214.872 71.509 215.045C71.8397 215.217 72.0885 215.514 72.2005 215.869L74.3609 222.73C74.473 223.086 74.4391 223.472 74.2668 223.802C74.0944 224.133 73.7977 224.382 73.442 224.494L69.2973 225.799L66.2921 216.256Z" stroke="#055286" stroke-width="1.8165" stroke-linecap="round" stroke-linejoin="round"/>
<path d="M86.6793 215.077L77.9473 217.826" stroke="#055286" stroke-width="1.8165" stroke-linecap="round" stroke-linejoin="round"/>
<path d="M61.916 231.507L53.7272 234.085L53.7339 234.083L57.3854 245.679C57.5545 246.216 57.8279 246.715 58.1898 247.146C58.5516 247.578 58.995 247.934 59.4945 248.194C59.994 248.455 60.5399 248.614 61.101 248.663C61.6621 248.713 62.2274 248.651 62.7646 248.482C63.3019 248.313 63.8005 248.039 64.2321 247.677C64.6637 247.315 65.0198 246.872 65.2801 246.373C65.5404 245.873 65.6997 245.327 65.749 244.766C65.7983 244.205 65.7366 243.64 65.5674 243.102L61.916 231.507ZM61.916 231.507L65.2693 230.451L66.4266 234.126C66.5946 234.66 66.5438 235.238 66.2853 235.734C66.0268 236.23 65.5818 236.604 65.0482 236.772L63.7068 237.194L61.916 231.507ZM72.3135 216.232L75.6668 215.176C76.0226 215.064 76.4082 215.097 76.739 215.27C77.0697 215.442 77.3185 215.739 77.4305 216.095L78.5181 219.548C78.6302 219.904 78.5963 220.29 78.4239 220.621C78.2516 220.951 77.9549 221.2 77.5992 221.312L74.2459 222.368L72.3135 216.232Z" stroke="#055286" stroke-width="1.8165" stroke-linecap="round" stroke-linejoin="round"/>
</g>
<g clip-path="url(#clip3_1101_5524)">
<path d="M214.284 41.9603C214.01 41.8032 213.704 41.7107 213.39 41.6899C213.075 41.6691 212.76 41.7207 212.468 41.8405L208.09 43.6428L208.37 46.5039L213.003 47.4067C213.312 47.4648 213.63 47.4531 213.934 47.3723C214.238 47.2916 214.52 47.144 214.759 46.9402C215.245 46.5167 215.852 46.2556 216.493 46.1933L227.555 45.139L227.181 41.2811L216.132 42.3611C215.489 42.4242 214.843 42.2841 214.284 41.9603Z" stroke="#055286" stroke-width="1.8165" stroke-linecap="round" stroke-linejoin="round"/>
<path d="M231.024 48.7259L228.633 48.9648C228.541 48.9739 228.448 48.9646 228.359 48.9376C228.271 48.9105 228.189 48.8663 228.117 48.8074C228.046 48.7484 227.987 48.676 227.943 48.5942C227.9 48.5123 227.873 48.4228 227.865 48.3306L226.862 38.059C226.848 37.8777 226.904 37.6978 227.019 37.5571C227.135 37.4163 227.3 37.3258 227.481 37.3045L229.871 37.0656C230.01 37.0525 230.149 37.0835 230.269 37.1544L232.236 38.2297C232.723 38.4994 233.268 38.647 233.824 38.6599C234.38 38.6727 234.931 38.5503 235.43 38.3033C236.39 37.8285 237.602 37.2244 238.531 36.7675C239.472 36.303 240.491 36.0151 241.536 35.9183L247.303 35.3556C248.068 35.2808 248.84 35.3574 249.575 35.5809C250.31 35.8045 250.993 36.1706 251.587 36.6584C252.18 37.1461 252.672 37.7461 253.034 38.4238C253.395 39.1016 253.62 39.844 253.695 40.6086C253.842 42.1478 253.374 43.6826 252.394 44.8783C251.413 46.074 250 46.8336 248.462 46.9914L242.695 47.5541C241.657 47.6673 240.607 47.5919 239.595 47.3317L236.263 46.4229C235.723 46.2751 235.155 46.2618 234.608 46.3841C234.062 46.5065 233.553 46.7608 233.128 47.1248L231.39 48.5887C231.284 48.6683 231.156 48.7159 231.024 48.7259Z" stroke="#055286" stroke-width="1.8165" stroke-linecap="round" stroke-linejoin="round"/>
</g>
<g clip-path="url(#clip4_1101_5524)">
<path d="M280.135 125.531L286.035 144.314C286.091 144.492 286.074 144.685 285.987 144.85C285.901 145.015 285.753 145.14 285.575 145.196L270.146 150.042L263.824 129.918L279.253 125.071C279.431 125.015 279.624 125.033 279.789 125.119C279.954 125.205 280.079 125.353 280.135 125.531Z" stroke="#055286" stroke-width="1.8165" stroke-linecap="round" stroke-linejoin="round"/>
<path d="M259.441 136.793L259.884 133.301C259.969 132.634 260.244 132.006 260.675 131.49C261.106 130.975 261.676 130.594 262.317 130.392L263.859 129.907L270.181 150.031L268.638 150.516C267.998 150.718 267.313 150.731 266.665 150.556C266.017 150.381 265.433 150.024 264.982 149.527L262.621 146.916C262.051 146.284 261.271 145.881 260.427 145.78C259.582 145.68 258.729 145.889 258.027 146.369L253.531 149.417C252.834 149.888 252.03 150.176 251.192 150.255C250.056 150.361 248.917 150.074 247.966 149.442C247.015 148.81 246.309 147.871 245.967 146.782L245.855 146.426C245.512 145.338 245.552 144.165 245.97 143.103C246.387 142.041 247.157 141.154 248.149 140.591C248.878 140.175 249.701 139.952 250.54 139.943L255.976 139.864C256.828 139.859 257.648 139.544 258.286 138.979C258.923 138.415 259.333 137.638 259.441 136.793Z" stroke="#055286" stroke-width="1.8165" stroke-linecap="round" stroke-linejoin="round"/>
<path d="M249.049 145.615C249.273 146.326 250.031 146.722 250.742 146.498C251.453 146.275 251.849 145.517 251.625 144.806C251.402 144.094 250.644 143.699 249.933 143.922C249.221 144.146 248.826 144.903 249.049 145.615Z" fill="#055286"/>
<path d="M275.044 148.504L268.723 128.38L263.859 129.907L270.181 150.032L275.044 148.504Z" stroke="#055286" stroke-width="1.8165" stroke-linecap="round" stroke-linejoin="round"/>
</g>
<g clip-path="url(#clip5_1101_5524)">
<path d="M19.8148 132.549L34.1211 117.241C34.3412 117.008 34.6235 116.844 34.9343 116.767C35.2452 116.69 35.5717 116.704 35.8749 116.807C36.1782 116.91 36.4455 117.097 36.6452 117.348C36.8449 117.598 36.9685 117.901 37.0014 118.219L39.1355 139.096C39.1623 139.374 39.1193 139.653 39.0104 139.91C38.9016 140.167 38.7303 140.392 38.5122 140.566C38.2941 140.74 38.0361 140.856 37.7616 140.905C37.487 140.953 37.2047 140.932 36.9402 140.844L20.4843 135.273C20.2201 135.183 19.9828 135.027 19.7943 134.821C19.6057 134.615 19.472 134.365 19.4053 134.094C19.3387 133.823 19.3413 133.539 19.4128 133.269C19.4844 133 19.6226 132.752 19.8148 132.549Z" stroke="#055286" stroke-width="1.8165" stroke-linecap="round" stroke-linejoin="round"/>
<path d="M26.3144 145.155L30.3597 133.171" stroke="#055286" stroke-width="1.8165" stroke-linecap="round" stroke-linejoin="round"/>
<path d="M24.8752 144.673L27.7262 145.637C28.0795 145.756 28.371 146.011 28.5364 146.345C28.7018 146.679 28.7277 147.066 28.6083 147.419L24.7186 158.929C24.5097 159.548 24.0636 160.058 23.4787 160.347C22.8937 160.637 22.2177 160.682 21.5993 160.473L20.7467 160.185C20.1284 159.976 19.6184 159.53 19.3289 158.945C19.0394 158.36 18.9942 157.684 19.2031 157.066L23.0928 145.555C23.2122 145.202 23.467 144.91 23.8013 144.745C24.1356 144.58 24.5219 144.554 24.8752 144.673Z" stroke="#055286" stroke-width="1.8165" stroke-linecap="round" stroke-linejoin="round"/>
</g>
<path d="M148.753 10.9758L146.461 14.1469C146.364 14.2824 146.324 14.4507 146.35 14.6153C146.377 14.7798 146.467 14.9273 146.601 15.0258L152.712 19.4344C152.837 19.5266 152.993 19.5669 153.148 19.5469L156.073 19.2375C156.38 19.2042 156.69 19.2854 156.941 19.4657C157.193 19.646 157.369 19.9127 157.437 20.2149L157.992 22.6477C158.085 23.0946 158.334 23.4936 158.695 23.7727L159.56 24.3914C159.832 24.5869 160.171 24.6664 160.502 24.6123C160.833 24.5583 161.129 24.3752 161.325 24.1032L166.141 17.4235C166.24 17.2888 166.31 17.136 166.349 16.974C166.388 16.8119 166.395 16.6437 166.369 16.4791C166.343 16.3144 166.284 16.1566 166.197 16.0146C166.11 15.8726 165.995 15.7492 165.86 15.6516L165.002 15.0399C164.625 14.7653 164.159 14.6401 163.694 14.6883L161.248 14.9485C160.94 14.9818 160.63 14.9006 160.379 14.7203C160.127 14.54 159.951 14.2733 159.883 13.9711L159.335 11.5383C159.23 11.086 158.965 10.6866 158.59 10.4133L151.84 5.54769C150.389 4.5045 148.737 3.77451 146.989 3.4041C145.241 3.0337 143.436 3.03098 141.687 3.39613L140.421 3.66331C140.301 3.69029 140.192 3.75108 140.106 3.83844C140.02 3.92579 139.961 4.03604 139.936 4.15605C139.91 4.27607 139.92 4.40079 139.964 4.51537C140.008 4.62996 140.083 4.72958 140.182 4.80238L148.753 10.9758Z" stroke="#055286" stroke-width="1.8165" stroke-linecap="round" stroke-linejoin="round"/>
<path d="M146.938 15.2639L152.036 18.94L136.337 40.716C135.901 41.3211 135.242 41.7281 134.506 41.8475C133.769 41.9669 133.016 41.7889 132.411 41.3526L131.88 40.9702C131.275 40.534 130.868 39.8753 130.749 39.139C130.629 38.4027 130.807 37.6491 131.244 37.044L146.943 15.268L146.938 15.2639Z" stroke="#055286" stroke-width="1.8165" stroke-linecap="round" stroke-linejoin="round"/>
<g clip-path="url(#clip6_1101_5524)">
<path d="M139.255 239.006L141.449 245.567C141.487 245.686 141.555 245.792 141.647 245.876C141.739 245.959 141.852 246.017 141.973 246.042L145.25 246.756C145.376 246.786 145.508 246.78 145.631 246.739C145.755 246.697 145.864 246.623 145.948 246.524L148.095 244.025C148.18 243.93 148.237 243.815 148.262 243.69C148.286 243.566 148.276 243.437 148.234 243.318L146.064 236.722C147.9 236.908 149.64 237.634 151.064 238.808C152.488 239.982 153.532 241.551 154.066 243.317C154.599 245.084 154.597 246.969 154.061 248.735C153.524 250.5 152.477 252.068 151.051 253.239C150.233 253.893 149.304 254.397 148.309 254.726C147.264 255.071 146.166 255.223 145.067 255.174C143.241 255.066 141.487 254.424 140.022 253.327C138.557 252.231 137.446 250.729 136.827 249.007C136.209 247.285 136.109 245.42 136.54 243.642C136.972 241.864 137.916 240.252 139.255 239.006Z" stroke="#055286" stroke-width="1.8165" stroke-linecap="round" stroke-linejoin="round"/>
<path d="M151.051 253.239C149.359 254.592 147.231 255.28 145.067 255.174L152.652 277.982C152.781 278.374 152.986 278.736 153.254 279.048C153.523 279.361 153.851 279.617 154.218 279.803C154.586 279.988 154.987 280.1 155.398 280.13C155.809 280.161 156.222 280.11 156.613 279.981C157.005 279.853 157.369 279.649 157.682 279.38C157.995 279.111 158.252 278.783 158.438 278.414C158.624 278.046 158.736 277.644 158.767 277.232C158.797 276.821 158.746 276.407 158.616 276.015L151.05 253.264L151.051 253.239Z" stroke="#055286" stroke-width="1.8165" stroke-linecap="round" stroke-linejoin="round"/>
</g>
<defs>
<clipPath id="clip0_1101_5524">
<rect width="45" height="45" fill="white" transform="translate(48.6562 68.936) rotate(-95.5103)"/>
</clipPath>
<clipPath id="clip1_1101_5524">
<rect width="45" height="45" fill="white" transform="translate(215.037 208.525) rotate(29.5291)"/>
</clipPath>
<clipPath id="clip2_1101_5524">
<rect width="45" height="45" fill="white" transform="translate(39.4043 215.006) rotate(-17.479)"/>
</clipPath>
<clipPath id="clip3_1101_5524">
<rect width="45" height="45" fill="white" transform="translate(229.58 74.9927) rotate(-131.538)"/>
</clipPath>
<clipPath id="clip4_1101_5524">
<rect width="45" height="45" fill="white" transform="translate(279.227 112.551) rotate(72.5608)"/>
</clipPath>
<clipPath id="clip5_1101_5524">
<rect width="45" height="45" fill="white" transform="translate(0 124.271) rotate(-17.6888)"/>
</clipPath>
<clipPath id="clip6_1101_5524">
<rect width="45" height="45" fill="white" transform="translate(118.391 262.277) rotate(-54.0993)"/>
</clipPath>
</defs>
</svg>
