<svg width="172" height="53" viewBox="0 0 172 53" fill="none" xmlns="http://www.w3.org/2000/svg">
<path d="M165.745 0.856812H6.69942C3.67051 0.856812 1.21509 3.3506 1.21509 6.42683V46.0854C1.21509 49.1616 3.67051 51.6554 6.69942 51.6554H165.745C168.774 51.6554 171.229 49.1616 171.229 46.0854V6.42683C171.229 3.3506 168.774 0.856812 165.745 0.856812Z" stroke="white"/>
<path d="M89.5753 28.6569C90.9562 28.6569 91.995 29.1815 92.7562 29.9859V29.0055H95.2274V39.4059C95.2274 43.4932 92.8253 45.4416 89.674 45.4416C86.7936 45.4416 85.1758 43.7015 84.3718 42.0327L86.6379 41.1036C86.9505 41.85 87.8554 43.1645 89.6554 43.1645C91.52 43.1645 92.7551 41.9681 92.7551 39.9707V38.8288C92.0948 39.5797 91.202 40.2358 89.5216 40.2358C86.8035 40.2358 83.9155 37.9254 83.9155 34.4408C83.9155 31.3828 86.4075 28.6569 89.5753 28.6569ZM150.199 28.9331L153.638 36.4036L157.076 28.9331H159.944L159.941 28.9376L159.936 28.9476L159.933 28.9543L159.887 29.0568L159.751 29.3531L159.672 29.5247L152.345 45.4416H149.477L152.204 39.5173L147.332 28.9331H150.199ZM22.8069 32.0278L26.4649 35.7185L11.0364 44.2518C10.9281 44.3127 10.8155 44.3656 10.6997 44.41L22.8069 32.0278ZM9.23862 18.6152L22.2617 31.4552L9.30115 44.41C8.92273 44.1738 8.71981 43.6592 8.71652 42.9952L8.60025 20.1915L8.59915 20.0033C8.59586 19.2769 8.8624 18.8336 9.23862 18.6152ZM135.77 30.5529C138.759 25.9855 146.66 27.476 146.267 33.8114V39.954H143.755V38.5737C143.178 39.2744 142.472 39.8147 141.574 40.0631C139.984 40.5054 138.043 40.3305 136.862 39.0394C136.105 38.2106 135.863 36.8504 136.005 35.7464C136.268 33.7033 137.921 32.4567 139.852 32.2595C141.089 32.1314 142.442 32.3765 143.697 32.7129C143.423 29.9302 139.251 29.3319 137.79 31.9298L135.77 30.5529ZM49.3642 22.7426C53.4533 22.7426 55.6953 25.131 55.6953 25.131L53.9491 26.8611C53.9491 26.8611 52.2818 25.1366 49.4541 25.1366C45.7884 25.1366 42.8631 27.9194 42.8631 31.5332C42.8631 35.2428 45.931 37.8897 49.4454 37.8897C52.193 37.8897 55.1052 36.4616 55.398 33.114H49.4355V30.7256H57.843C57.8616 30.7991 57.9779 31.2937 57.9943 32.1136L57.9965 32.3086C57.9965 37.0654 54.4043 40.2826 49.4958 40.2826C43.9182 40.2826 40.1286 35.9413 40.1286 31.4909C40.1286 26.948 44.1574 22.7426 49.3642 22.7426ZM64.8333 28.9331C67.6029 28.9331 70.6083 30.8704 70.6083 34.6279C70.6083 37.9064 68.0252 40.2826 64.8717 40.2826C61.3902 40.2826 59.0473 37.6357 59.0473 34.5622C59.0473 31.5321 61.4626 28.9331 64.8333 28.9331ZM77.4451 28.9331C80.2168 28.9331 83.2201 30.8704 83.2201 34.6279C83.2201 37.9064 80.638 40.2826 77.4856 40.2826C74.002 40.2826 71.6591 37.6357 71.6591 34.5622C71.6591 31.5321 74.0744 28.9331 77.4451 28.9331ZM106.433 28.9331L106.694 28.9409C108.857 29.0501 110.485 30.515 111.199 32.2551L111.597 33.1797L103.912 36.3335C104.373 37.1801 105.114 38.0513 106.724 38.0513C108.158 38.0513 109.018 37.2804 109.532 36.4916L111.513 37.795C110.624 38.9714 109.137 40.2826 106.712 40.2826C103.806 40.2826 101.087 38.166 101.087 34.5945C101.087 31.2202 103.527 28.9331 106.433 28.9331ZM122.998 22.7426C125.976 22.7426 128.413 25.1076 128.413 28.0007C128.413 30.8938 125.976 33.2588 122.998 33.2588H119.394V39.251H116.852V22.7415L122.998 22.7426ZM98.9853 22.7426V39.251H96.8837V22.7415H98.9853V22.7426ZM132.617 22.7426V39.251H130.516V22.7415H132.617V22.7426ZM64.8662 31.1634C63.0037 31.1634 61.5734 32.6305 61.5734 34.5967C61.5734 36.6042 63.0213 38.0557 64.8585 38.0557C66.5301 38.0557 68.0943 36.6966 68.0943 34.6123C68.0943 32.4835 66.5236 31.1634 64.8662 31.1634ZM77.4801 31.1634C75.6155 31.1634 74.1852 32.6305 74.1852 34.5967C74.1852 36.6042 75.6341 38.0557 77.4714 38.0557C79.143 38.0557 80.7071 36.6966 80.7071 34.6123C80.7071 32.4835 79.1375 31.1634 77.4801 31.1634ZM89.8056 30.9261C88.1428 30.9261 86.5096 32.2517 86.5096 34.4753C86.5096 36.6131 88.0814 37.9599 89.7716 37.9599C91.3621 37.9599 92.9547 36.7133 92.9547 34.453C92.9547 32.2284 91.3599 30.9261 89.8056 30.9261ZM141.668 34.5076C137.354 33.8481 138.077 38.6428 140.979 37.8385C142.352 37.4586 143.436 36.4371 143.756 35.0167C143.054 34.785 142.407 34.5978 141.668 34.5076ZM27.3972 27.9016L33.0264 30.5974C34.4128 31.2625 33.7031 32.0936 33.0264 32.4188L27.4016 35.1236L23.3114 31.5354L27.3972 27.9016ZM106.532 31.1132C104.873 31.1132 103.298 32.8032 103.521 34.4463L108.651 32.3242C108.333 31.6647 107.578 31.1132 106.532 31.1132ZM9.64995 18.6141C9.84738 18.6397 10.0437 18.6943 10.217 18.7845L26.4649 27.2666L22.6116 30.9985L9.64995 18.6141ZM122.998 25.209H119.394V30.7924H122.998C124.574 30.7924 125.873 29.5325 125.873 28.0007C125.873 26.4701 124.574 25.209 122.998 25.209ZM44.4743 9.32887C46.2249 9.32887 47.256 10.2568 47.4293 10.4262L47.4556 10.4518L46.633 11.2672C46.633 11.2672 45.8487 10.4551 44.5171 10.4551C42.7918 10.4551 41.4163 11.7641 41.4163 13.4652C41.4163 15.2119 42.8587 16.4574 44.5138 16.4574C45.8059 16.4574 47.1759 15.7856 47.3152 14.2093H44.5084V13.0853H48.4658C48.4801 13.1488 48.5371 13.4106 48.5371 13.8306C48.5371 16.0697 46.8469 17.5825 44.538 17.5825C41.9121 17.5825 40.1286 15.5406 40.1286 13.4462C40.1286 11.3073 42.0251 9.32887 44.4743 9.32887ZM77.9661 9.32887C80.3353 9.32887 82.1693 11.3085 82.1693 13.4462C82.1693 15.5239 80.4713 17.5513 77.9661 17.5825C75.4586 17.5513 73.7607 15.5239 73.7607 13.4462C73.7607 11.3073 75.5946 9.32887 77.9661 9.32887ZM64.3024 9.32887V16.551H63.2516V9.32887H64.3024ZM60.0981 9.32887V10.4095H58.0843V16.551H56.8569V10.4083H54.843V9.32776L60.0981 9.32887ZM53.7911 9.32887V10.4095H50.6837V12.4002H53.4182V13.4808H50.6837V15.4726H53.7922V16.551H49.5868V9.32887H53.7911ZM70.6083 9.32887V10.4095H68.5933V16.551H67.367V10.4083H65.3532V9.32776H70.6072L70.6083 9.32887ZM84.4299 9.32887L88.315 14.587V9.32887H89.5259V16.551H88.3172L84.4299 11.2895V16.551H83.2201V9.32887H84.4299ZM77.9661 10.4562C76.3153 10.4774 75.0067 11.7786 75.0067 13.4652C75.0067 15.1986 76.3811 16.4373 77.9661 16.4563C79.551 16.4373 80.9243 15.1974 80.9243 13.4652C80.9243 11.7786 79.6147 10.4774 77.9661 10.4562Z" fill="white"/>
</svg>
