<svg width="172" height="54" viewBox="0 0 172 54" fill="none" xmlns="http://www.w3.org/2000/svg">
<g clip-path="url(#clip0_289_1573)">
<path d="M165.078 1.32898H6.03279C3.00388 1.32898 0.548462 3.82276 0.548462 6.899V46.5576C0.548462 49.6338 3.00388 52.1276 6.03279 52.1276H165.078C168.107 52.1276 170.563 49.6338 170.563 46.5576V6.899C170.563 3.82276 168.107 1.32898 165.078 1.32898Z" stroke="white"/>
<path d="M75.7704 28.5297C77.2402 28.5297 78.392 29.09 79.23 30.2118C80.0669 31.3348 80.4859 32.8921 80.4859 34.8851V35.08C80.4859 37.0117 80.0614 38.5446 79.2135 39.6786C78.3645 40.8116 77.2282 41.3786 75.8044 41.3786C74.123 41.3786 72.8352 40.7837 71.9413 39.5918V45.9137H70.5889V28.7581H71.8502L71.9183 30.5104C72.8045 29.1892 74.089 28.5297 75.7704 28.5297ZM88.6663 28.5297C90.1361 28.5297 91.29 29.09 92.1269 30.2118C92.9638 31.3348 93.3817 32.8921 93.3817 34.8851V35.08C93.3817 37.0117 92.9583 38.5446 92.1094 39.6786C91.2615 40.8116 90.124 41.3786 88.7003 41.3786C87.0188 41.3786 85.7311 40.7837 84.8371 39.5918V45.9137H83.4858V28.7581H84.7472L84.8152 30.5104C85.7015 29.1892 86.9848 28.5297 88.6663 28.5297ZM33.9327 18.0369C35.0273 18.0837 38.1008 18.4847 40.0751 21.409C39.9183 21.5126 36.4061 23.5824 36.4489 27.8936C36.4917 33.0436 40.9055 34.7559 40.957 34.7781C40.9164 34.9007 40.2506 37.2234 38.6295 39.6241C37.2277 41.6983 35.7776 43.7615 33.4884 43.8049C31.2355 43.8484 30.5137 42.4536 27.9427 42.4536C25.3694 42.4536 24.5643 43.7615 22.4364 43.8484C20.2262 43.9319 18.5458 41.6059 17.1331 39.5405C14.2461 35.3151 12.0414 27.5939 15.0052 22.3837C16.4728 19.7959 19.103 18.1583 21.9527 18.1149C24.1234 18.0748 26.1734 19.5965 27.4996 19.5965C28.8268 19.5965 31.3156 17.7695 33.9316 18.0369H33.9327ZM107.358 24.2463C108.456 24.2463 109.439 24.4602 110.306 24.8869C111.173 25.3147 111.846 25.9107 112.324 26.6738C112.801 27.438 113.04 28.2891 113.04 29.2282H111.63C111.63 28.0908 111.244 27.1762 110.471 26.4855C109.699 25.7948 108.661 25.4495 107.358 25.4495C106.093 25.4495 105.085 25.7335 104.335 26.3017C103.586 26.8698 103.211 27.6129 103.211 28.5297C103.211 29.3763 103.547 30.067 104.222 30.6017C104.897 31.1365 105.976 31.6077 107.46 32.0165C108.945 32.4254 110.071 32.8487 110.835 33.2876C111.6 33.7265 112.175 34.2512 112.562 34.8628C112.949 35.4733 113.142 36.1952 113.142 37.0273C113.142 38.3407 112.621 39.3935 111.579 40.1877C110.537 40.982 109.166 41.3797 107.46 41.3797C106.294 41.3797 105.223 41.1681 104.251 40.7492C103.277 40.3292 102.538 39.741 102.035 38.9857C101.53 38.2293 101.278 37.3626 101.278 36.3856H102.677C102.677 37.5609 103.112 38.4889 103.983 39.1684C104.855 39.848 106.013 40.1877 107.46 40.1877C108.748 40.1877 109.782 39.9014 110.562 39.3288C111.343 38.7562 111.732 37.9965 111.732 37.0496C111.732 36.1261 111.411 35.3953 110.767 34.8572C110.123 34.3181 108.945 33.8067 107.233 33.3221C105.522 32.8375 104.271 32.3084 103.484 31.7358C102.362 30.927 101.801 29.8654 101.801 28.552C101.801 27.2775 102.322 26.2404 103.364 25.4439C104.406 24.6452 105.737 24.2463 107.358 24.2463ZM117.948 25.5865V28.7581H120.493V29.881H117.948V38.138C117.948 38.8253 118.071 39.3366 118.317 39.672C118.564 40.0084 118.975 40.1766 119.55 40.1766C119.778 40.1766 120.144 40.1387 120.652 40.0619L120.709 41.1837C120.353 41.314 119.868 41.3786 119.255 41.3786C118.322 41.3786 117.644 41.1057 117.221 40.5598C116.797 40.014 116.585 39.2108 116.585 38.1491V29.881H114.323V28.7581H116.585V25.5865H117.948ZM128.038 28.5297C129.674 28.5297 131 29.1079 132.014 30.2642C133.03 31.4205 133.537 32.9534 133.537 34.8628V35.1491C133.537 36.3478 133.308 37.4261 132.85 38.3842C132.392 39.3422 131.746 40.0808 130.912 40.601C130.078 41.1191 129.129 41.3786 128.06 41.3786C126.431 41.3786 125.109 40.8004 124.09 39.6441C123.07 38.4867 122.561 36.9549 122.561 35.0455V34.7703C122.561 33.5795 122.791 32.5067 123.248 31.5531C123.707 30.5984 124.354 29.8554 125.192 29.3251C126.029 28.7948 126.978 28.5297 128.038 28.5297ZM148.684 28.5297C150.175 28.5297 151.36 29.0421 152.234 30.0692C153.109 31.0964 153.547 32.4989 153.547 34.278V35.0466H144.775V35.3095C144.775 36.7132 145.175 37.884 145.973 38.8186C146.773 39.7544 147.779 40.2223 148.99 40.2223C149.718 40.2223 150.36 40.0886 150.917 39.8212C151.473 39.5539 151.979 39.1261 152.434 38.539L153.285 39.1918C152.286 40.6501 150.834 41.3786 148.934 41.3786C147.888 41.3786 146.943 41.1191 146.098 40.5999C145.253 40.0798 144.57 39.3275 144.127 38.4298C143.658 37.5019 143.423 36.4625 143.423 35.3095V34.8171C143.423 33.6251 143.652 32.5524 144.111 31.5977C144.568 30.6441 145.208 29.8932 146.025 29.3474C146.811 28.8118 147.737 28.527 148.684 28.5297ZM62.2263 24.4747L68.4873 41.1502H67.0328L65.3162 36.477H57.806L56.1014 41.1502H54.636L60.8969 24.4747H62.2263ZM141.161 28.5297C141.541 28.5297 141.839 28.5787 142.06 28.6778L142.026 29.9255C141.721 29.871 141.413 29.8445 141.104 29.8464C140.256 29.8464 139.539 30.0848 138.951 30.5616C138.364 31.0395 137.946 31.7313 137.696 32.6404V41.1502H136.344V28.7581H137.673L137.695 30.7276C138.416 29.2627 139.571 28.5297 141.161 28.5297ZM75.4644 29.7206C74.6308 29.7206 73.9156 29.9222 73.3168 30.3277C72.719 30.7321 72.2605 31.3192 71.9424 32.0912V38.0344C72.2681 38.7451 72.7332 39.2865 73.3398 39.6608C73.9453 40.0351 74.6615 40.2223 75.4874 40.2223C76.6315 40.2223 77.5232 39.7622 78.1638 38.842C78.8033 37.9219 79.1236 36.5884 79.1236 34.8394C79.1236 33.2586 78.8011 32.0098 78.1583 31.0941C77.5134 30.1784 76.6161 29.7206 75.4644 29.7206ZM88.3614 29.7206C87.5277 29.7206 86.8115 29.9222 86.2137 30.3277C85.6148 30.7321 85.1563 31.3192 84.8382 32.0912V38.0344C85.164 38.7451 85.6302 39.2865 86.2356 39.6608C86.8422 40.0351 87.5585 40.2223 88.3833 40.2223C89.5273 40.2223 90.4191 39.7622 91.0597 38.842C91.6991 37.9219 92.0194 36.5884 92.0194 34.8394C92.0194 33.2586 91.698 32.0098 91.0542 31.0941C90.4103 30.1784 89.512 29.7206 88.3614 29.7206ZM128.039 29.6983C126.827 29.6983 125.838 30.1773 125.073 31.1353C124.308 32.0934 123.926 33.3466 123.926 34.8973V35.1491C123.926 36.6307 124.307 37.845 125.067 38.7964C125.829 39.7466 126.827 40.2223 128.061 40.2223C129.29 40.2223 130.282 39.7466 131.045 38.7964C131.806 37.8461 132.186 36.5917 132.186 35.0344V34.7703C132.186 33.8234 132.012 32.9579 131.663 32.1714C131.315 31.3849 130.827 30.7755 130.198 30.3444C129.57 29.9133 128.849 29.6983 128.039 29.6983ZM61.5562 26.1925L58.2392 35.275H64.8753L61.5562 26.1925ZM148.685 29.6972C148.199 29.6884 147.717 29.785 147.271 29.9806C146.826 30.1762 146.426 30.4662 146.099 30.8312C145.4 31.5876 144.973 32.6025 144.821 33.878H152.196V33.7287C152.157 32.5368 151.821 31.5676 151.184 30.8201C150.548 30.0715 149.715 29.6972 148.685 29.6972ZM158.146 12.2908C159.006 12.2908 159.682 12.5872 160.175 13.1776C160.667 13.768 160.914 14.5723 160.914 15.5916V15.9927H156.331V16.0428C156.359 16.6923 156.537 17.2069 156.866 17.589C157.195 17.9712 157.631 18.1616 158.17 18.1616C158.581 18.1616 158.923 18.0859 159.199 17.9333C159.474 17.7807 159.68 17.5612 159.813 17.2727H160.831C160.691 17.8175 160.358 18.2909 159.897 18.6028C159.427 18.9259 158.844 19.0874 158.146 19.0874C157.263 19.0874 156.563 18.781 156.048 18.1706C155.531 17.5601 155.273 16.7335 155.273 15.6952C155.273 14.6637 155.533 13.8393 156.053 13.2199C156.573 12.6005 157.271 12.2908 158.146 12.2908ZM125.088 12.2908C125.995 12.2908 126.711 12.5938 127.238 13.1988C127.764 13.8037 128.027 14.6336 128.027 15.6897C128.027 16.7402 127.764 17.5701 127.238 18.1772C126.711 18.7833 125.995 19.0874 125.088 19.0874C124.182 19.0874 123.464 18.7833 122.939 18.1772C122.412 17.5701 122.149 16.7402 122.149 15.6897C122.149 14.6336 122.412 13.8037 122.939 13.1988C123.465 12.5938 124.181 12.2908 125.088 12.2908ZM67.7502 12.2908C68.6562 12.2908 69.3735 12.5938 69.9 13.1988C70.4254 13.8037 70.6887 14.6336 70.6887 15.6897C70.6887 16.7402 70.4254 17.5701 69.8989 18.1772C69.3724 18.7833 68.6562 19.0874 67.7491 19.0874C66.843 19.0874 66.1268 18.7833 65.6003 18.1772C65.0738 17.5701 64.8106 16.7402 64.8106 15.6897C64.8106 14.6336 65.0738 13.8037 65.6003 13.1988C66.1268 12.5938 66.843 12.2908 67.7502 12.2908ZM97.2789 12.2908C98.186 12.2908 98.9023 12.5938 99.4287 13.1988C99.9552 13.8037 100.218 14.6336 100.218 15.6897C100.218 16.7402 99.9552 17.5701 99.4287 18.1772C98.9023 18.7833 98.186 19.0874 97.2789 19.0874C96.3729 19.0874 95.6555 18.7833 95.129 18.1772C94.6036 17.5701 94.3404 16.7402 94.3404 15.6897C94.3404 14.6336 94.6036 13.8037 95.1301 13.1988C95.6566 12.5938 96.3718 12.2908 97.2789 12.2908ZM115.518 9.80104V18.9715H114.548V17.9244H114.454C114.258 18.284 113.967 18.5804 113.613 18.7799C113.247 18.987 112.833 19.093 112.413 19.0874C111.597 19.0874 110.947 18.7788 110.462 18.1616C109.977 17.5445 109.735 16.7201 109.735 15.6886C109.735 14.6581 109.979 13.8337 110.469 13.2166C110.957 12.5994 111.605 12.292 112.413 12.292C112.859 12.292 113.258 12.3922 113.611 12.5961C113.963 12.7988 114.231 13.0807 114.412 13.4427H114.5V9.79993L115.518 9.80104ZM104.97 12.2908C105.747 12.2908 106.346 12.4847 106.765 12.8724C107.185 13.26 107.394 13.7959 107.394 14.4765V18.9715H106.425V18.0023H106.33C106.136 18.3413 105.854 18.6195 105.514 18.8067C105.175 18.9938 104.794 19.0874 104.368 19.0874C103.748 19.0874 103.235 18.9114 102.827 18.5605C102.419 18.2095 102.215 17.7328 102.215 17.1323C102.215 15.9303 102.99 15.2831 104.539 15.1895L106.377 15.0736V14.4776C106.377 13.6421 105.897 13.2233 104.935 13.2233C104.552 13.2233 104.235 13.2946 103.983 13.436C103.866 13.4971 103.762 13.5821 103.678 13.6858C103.595 13.7896 103.534 13.9097 103.498 14.0387H102.469C102.536 13.5118 102.801 13.0885 103.262 12.7687C103.723 12.4501 104.293 12.2908 104.97 12.2908ZM143.887 10.709V12.4067H145.306V13.2834H143.887V16.9986C143.887 17.3841 143.963 17.6637 144.112 17.8386C144.262 18.0135 144.502 18.1004 144.834 18.1004C144.923 18.1004 145.001 18.0981 145.067 18.0948L145.306 18.0759V18.9593C145.11 18.9998 144.91 19.0203 144.71 19.0205C144.055 19.0205 143.585 18.8846 143.299 18.6117C143.014 18.3399 142.871 17.8921 142.871 17.266V13.2834H141.841V12.4067H142.87V10.7078L143.887 10.709ZM85.9647 12.2908C86.6821 12.2908 87.2327 12.5014 87.6166 12.9214C88.0005 13.3413 88.1936 13.9418 88.1936 14.7205V18.9715H87.1768V14.9767C87.1768 14.3841 87.0539 13.9451 86.8071 13.6622C86.5603 13.377 86.183 13.2355 85.6751 13.2355C85.1662 13.2355 84.7604 13.3993 84.4576 13.7279C84.1538 14.0577 84.0013 14.5099 84.0013 15.087V18.9715H82.9845V12.4067H83.9542V13.4427H84.0485C84.2108 13.0807 84.4478 12.7988 84.7615 12.5961C85.0752 12.3933 85.4755 12.2908 85.9647 12.2908ZM148.699 9.80104V13.4427H148.794C148.956 13.0807 149.2 12.7988 149.529 12.5961C149.858 12.3933 150.268 12.2908 150.758 12.2908C151.431 12.2908 151.965 12.5025 152.362 12.9281C152.757 13.3514 152.956 13.9496 152.956 14.7216V18.9715H151.939V14.9767C151.939 14.3963 151.814 13.9607 151.564 13.6711C151.314 13.3803 150.947 13.2355 150.467 13.2355C149.896 13.2355 149.458 13.4048 149.154 13.7435C148.851 14.0822 148.699 14.53 148.699 15.0859V18.9715H147.682V9.80104H148.699ZM133.382 12.2908C134.1 12.2908 134.651 12.5014 135.035 12.9214C135.419 13.3413 135.611 13.9418 135.611 14.7205V18.9715H134.594V14.9767C134.594 14.3841 134.471 13.9451 134.225 13.6622C133.979 13.377 133.602 13.2355 133.093 13.2355C132.585 13.2355 132.178 13.3993 131.875 13.7279C131.571 14.0577 131.42 14.5099 131.42 15.087V18.9715H130.403V12.4067H131.373V13.4427H131.467C131.628 13.0807 131.866 12.7988 132.18 12.5961C132.493 12.3933 132.893 12.2908 133.382 12.2908ZM58.6155 10.1854C59.8812 10.1854 60.8684 10.5697 61.5781 11.3417C62.2878 12.1126 62.6421 13.191 62.6421 14.5746C62.6421 15.9593 62.2889 17.0376 61.5814 17.8118C60.8739 18.585 59.8856 18.9704 58.6155 18.9704H55.6879V10.1854H58.6155ZM91.9053 9.80104V18.9715H90.8885V9.80104H91.9053ZM73.3003 12.4078L74.554 17.6559H74.6483L76.0743 12.4067H77.0494L78.4742 17.6559H78.5685L79.8223 12.4067H80.8456L80.6647 13.0706L80.2182 14.7116L79.6863 16.6667L79.2398 18.3076L79.0599 18.9715H78.0245L76.5997 13.8928H76.5053L75.086 18.9715H74.0571L72.2714 12.4067L73.3003 12.4078ZM106.377 15.9203L104.663 16.0361C103.733 16.1007 103.268 16.4594 103.268 17.1078C103.268 17.4409 103.39 17.7004 103.634 17.8876C103.879 18.0748 104.186 18.1672 104.557 18.1672C105.081 18.1672 105.515 18.0113 105.861 17.696C106.205 17.3807 106.377 16.9908 106.377 16.5229V15.9203ZM67.7502 13.2355C67.1469 13.2355 66.6818 13.4494 66.3549 13.8772C66.027 14.3061 65.8635 14.9099 65.8635 15.6897C65.8635 16.465 66.0281 17.0677 66.3549 17.4977C66.6818 17.9277 67.1469 18.1438 67.7502 18.1438C68.3534 18.1438 68.8185 17.9277 69.1454 17.4977C69.4722 17.0677 69.6357 16.465 69.6357 15.6897C69.6357 14.9099 69.4722 14.3061 69.1454 13.8772C68.8185 13.4494 68.3534 13.2355 67.7502 13.2355ZM112.65 13.2355C112.07 13.2355 111.615 13.4539 111.285 13.8894C110.954 14.3261 110.788 14.9255 110.788 15.6897C110.788 16.4561 110.952 17.0577 111.281 17.4921C111.611 17.9266 112.067 18.1427 112.65 18.1427C113.23 18.1427 113.687 17.9244 114.021 17.4854C114.357 17.0476 114.524 16.4483 114.524 15.6897C114.524 14.9377 114.356 14.3417 114.019 13.8995C113.681 13.4561 113.225 13.2355 112.65 13.2355ZM125.089 13.2355C124.486 13.2355 124.02 13.4494 123.693 13.8772C123.366 14.3061 123.202 14.9099 123.202 15.6897C123.202 16.465 123.366 17.0677 123.693 17.4977C124.02 17.9277 124.486 18.1438 125.088 18.1438C125.691 18.1438 126.156 17.9277 126.484 17.4977C126.811 17.0677 126.974 16.465 126.974 15.6897C126.974 14.9099 126.81 14.3061 126.484 13.8772C126.156 13.4494 125.692 13.2355 125.089 13.2355ZM97.2789 13.2355C96.6756 13.2355 96.2105 13.4494 95.8837 13.8772C95.5568 14.3061 95.3934 14.9099 95.3934 15.6897C95.3934 16.465 95.5568 17.0677 95.8837 17.4977C96.2105 17.9277 96.6767 18.1438 97.2789 18.1438C97.8822 18.1438 98.3472 17.9277 98.6741 17.4977C99.0021 17.0677 99.1655 16.465 99.1655 15.6897C99.1655 14.9099 99.001 14.3061 98.6741 13.8772C98.3472 13.4494 97.8822 13.2355 97.2789 13.2355ZM58.5442 11.1713H56.7519V17.9845H58.5442C59.4984 17.9845 60.2377 17.686 60.7642 17.09C61.2907 16.4929 61.554 15.6585 61.554 14.5868C61.554 13.5118 61.2885 12.6729 60.7576 12.0725C60.2278 11.4709 59.4897 11.1713 58.5442 11.1713ZM33.9667 9.80104C34.1828 11.7985 33.3886 13.7981 32.2172 15.2385C31.0435 16.6778 29.1207 17.7985 27.2341 17.6481C26.9774 15.6941 27.9284 13.6566 29.0176 12.3788C30.2297 10.9418 32.2764 9.87234 33.9667 9.80104ZM158.133 13.2166C157.625 13.2166 157.207 13.3937 156.88 13.7468C156.552 14.1 156.369 14.5668 156.33 15.1471H159.842C159.831 14.5668 159.669 14.1 159.357 13.7468C159.046 13.3937 158.638 13.2166 158.133 13.2166Z" fill="white"/>
</g>
<defs>
<clipPath id="clip0_289_1573">
<rect width="171.111" height="53.4722" fill="white"/>
</clipPath>
</defs>
</svg>
