<svg width="155" height="33" viewBox="0 0 155 33" fill="none" xmlns="http://www.w3.org/2000/svg">
<path d="M10.4 32.28C8.45333 32.28 6.69333 31.9467 5.12 31.28C3.57333 30.6133 2.34667 29.6533 1.44 28.4C0.533333 27.1467 0.0666667 25.6667 0.0400001 23.96H6.04C6.12 25.1067 6.52 26.0133 7.24 26.68C7.98667 27.3467 9 27.68 10.28 27.68C11.5867 27.68 12.6133 27.3733 13.36 26.76C14.1067 26.12 14.48 25.2933 14.48 24.28C14.48 23.4533 14.2267 22.7733 13.72 22.24C13.2133 21.7067 12.5733 21.2933 11.8 21C11.0533 20.68 10.0133 20.3333 8.68 19.96C6.86667 19.4267 5.38667 18.9067 4.24 18.4C3.12 17.8667 2.14667 17.08 1.32 16.04C0.52 14.9733 0.12 13.56 0.12 11.8C0.12 10.1467 0.533334 8.70667 1.36 7.48C2.18667 6.25333 3.34667 5.32 4.84 4.68C6.33333 4.01333 8.04 3.68 9.96 3.68C12.84 3.68 15.1733 4.38667 16.96 5.8C18.7733 7.18667 19.7733 9.13333 19.96 11.64H13.8C13.7467 10.68 13.3333 9.89333 12.56 9.28C11.8133 8.64 10.8133 8.32 9.56 8.32C8.46667 8.32 7.58667 8.6 6.92 9.16C6.28 9.72 5.96 10.5333 5.96 11.6C5.96 12.3467 6.2 12.9733 6.68 13.48C7.18667 13.96 7.8 14.36 8.52 14.68C9.26667 14.9733 10.3067 15.32 11.64 15.72C13.4533 16.2533 14.9333 16.7867 16.08 17.32C17.2267 17.8533 18.2133 18.6533 19.04 19.72C19.8667 20.7867 20.28 22.1867 20.28 23.92C20.28 25.4133 19.8933 26.8 19.12 28.08C18.3467 29.36 17.2133 30.3867 15.72 31.16C14.2267 31.9067 12.4533 32.28 10.4 32.28ZM45.735 20.44C45.735 21.24 45.6817 21.96 45.575 22.6H29.375C29.5083 24.2 30.0683 25.4533 31.055 26.36C32.0417 27.2667 33.255 27.72 34.695 27.72C36.775 27.72 38.255 26.8267 39.135 25.04H45.175C44.535 27.1733 43.3083 28.9333 41.495 30.32C39.6817 31.68 37.455 32.36 34.815 32.36C32.6817 32.36 30.7617 31.8933 29.055 30.96C27.375 30 26.055 28.6533 25.095 26.92C24.1617 25.1867 23.695 23.1867 23.695 20.92C23.695 18.6267 24.1617 16.6133 25.095 14.88C26.0283 13.1467 27.335 11.8133 29.015 10.88C30.695 9.94667 32.6283 9.48 34.815 9.48C36.9217 9.48 38.8017 9.93333 40.455 10.84C42.135 11.7467 43.4283 13.04 44.335 14.72C45.2683 16.3733 45.735 18.28 45.735 20.44ZM39.935 18.84C39.9083 17.4 39.3883 16.2533 38.375 15.4C37.3617 14.52 36.1217 14.08 34.655 14.08C33.2683 14.08 32.095 14.5067 31.135 15.36C30.2017 16.1867 29.6283 17.3467 29.415 18.84H39.935ZM55.4225 13.28C56.1425 12.1067 57.0758 11.1867 58.2225 10.52C59.3958 9.85333 60.7292 9.52 62.2225 9.52V15.4H60.7425C58.9825 15.4 57.6492 15.8133 56.7425 16.64C55.8625 17.4667 55.4225 18.9067 55.4225 20.96V32H49.8225V9.84H55.4225V13.28ZM75.2344 26.84L80.8344 9.84H86.7944L78.5944 32H71.7944L63.6344 9.84H69.6344L75.2344 26.84ZM92.7797 7.2C91.793 7.2 90.9664 6.89333 90.2997 6.28C89.6597 5.64 89.3397 4.85333 89.3397 3.92C89.3397 2.98667 89.6597 2.21333 90.2997 1.6C90.9664 0.959998 91.793 0.639998 92.7797 0.639998C93.7664 0.639998 94.5797 0.959998 95.2197 1.6C95.8864 2.21333 96.2197 2.98667 96.2197 3.92C96.2197 4.85333 95.8864 5.64 95.2197 6.28C94.5797 6.89333 93.7664 7.2 92.7797 7.2ZM95.5397 9.84V32H89.9397V9.84H95.5397Z" fill="#055286"/>
<path d="M124.873 3.92L115.153 22.72V32H108.312V22.72L98.5925 3.92H106.353L111.793 15.68L117.193 3.92H124.873ZM145.108 27.04H134.628L132.948 32H125.788L135.948 3.92H143.868L154.028 32H146.788L145.108 27.04ZM143.348 21.76L139.868 11.48L136.428 21.76H143.348Z" fill="#FEDD02"/>
</svg>
